<?xml version="1.0" encoding="utf-8"?>
<!-- Generator: Adobe Illustrator 16.0.4, SVG Export Plug-In . SVG Version: 6.00 Build 0)  -->
<!DOCTYPE svg PUBLIC "-//W3C//DTD SVG 1.1//EN" "http://www.w3.org/Graphics/SVG/1.1/DTD/svg11.dtd">
<svg version="1.1" id="Layer_1" xmlns="http://www.w3.org/2000/svg" xmlns:xlink="http://www.w3.org/1999/xlink" x="0px" y="0px"
	 width="200px" height="200px" viewBox="0 0 200 200" enable-background="new 0 0 200 200" xml:space="preserve">
<path id="XMLID_105_" fill="#FFFFFF" d="M100.008,8.333L97.65,8.367c-6.025,0.167-12.258,1.1-18.55,2.767
	c-1.775,0.483-3.033,2.067-3.092,3.908c-0.058,1.842,1.108,3.5,2.85,4.083l5.792,1.925c2.05,0.684,3.25,2.867,2.717,4.967
	l-2.4,9.608c-0.508,2.017,0.558,4.108,2.5,4.875l14.066,5.625c2.142,0.858,3.184,3.292,2.334,5.425
	c-0.842,2.075-3.317,3.15-5.417,2.317l-20.833-8.333c-1.925-0.767-3-2.867-2.492-4.883l2.292-9.175
	c0.525-2.108-0.658-4.275-2.725-4.967l-15.775-5.25c-1.216-0.4-2.533-0.225-3.583,0.458C31.625,37.083,17.167,62.675,16.683,90.15
	C16.2,116.883,28.617,142.175,50,158.25V175c0,9.191,7.475,16.666,16.667,16.666c2.3,0,4.167-1.866,4.167-4.166v-16.666
	c0-2.301,1.867-4.168,4.167-4.168c2.292,0,4.167,1.867,4.167,4.168V187.5c0,2.3,1.867,4.166,4.167,4.166h8.333
	c2.3,0,4.167-1.866,4.167-4.166v-16.666c0-2.301,1.875-4.168,4.167-4.168c2.291,0,4.166,1.867,4.166,4.168V187.5
	c0,2.3,1.867,4.166,4.168,4.166h8.332c2.301,0,4.168-1.866,4.168-4.166v-16.666c0-2.301,1.875-4.168,4.166-4.168
	s4.166,1.867,4.166,4.168V187.5c0,2.3,1.867,4.166,4.168,4.166c9.183,0,16.666-7.475,16.666-16.666v-16.75
	c20.916-15.725,33.334-40.459,33.334-66.583C183.334,45.717,145.95,8.333,100.008,8.333z M70.658,108.483
	c-5.216,0-10.283-2.692-14.292-7.583c-5.184-6.334-7.842-15.55-6.458-22.409c1.517-7.517,6.375-11.825,13.325-11.825
	c11.425,0,27.042,12.508,28.217,20.358c0.808,5.383-0.625,10.517-4.008,14.45C83.592,105.925,77.483,108.483,70.658,108.483z
	 M95.833,137.5c0,7.242-3.508,12.5-8.333,12.5s-8.333-5.258-8.333-12.5c0-5.934,7.375-13.383,9.633-15.525
	c1.208-1.149,2.992-1.458,4.508-0.809c1.534,0.668,2.525,2.168,2.525,3.834V137.5z M112.5,150c-4.825,0-8.334-5.258-8.334-12.5V125
	c0-1.666,0.992-3.166,2.525-3.834c1.525-0.666,3.301-0.341,4.509,0.809c2.259,2.143,9.634,9.592,9.634,15.525
	C120.834,144.742,117.325,150,112.5,150z M143.625,100.75c-4,4.892-9.075,7.584-14.291,7.584c-6.817,0-12.934-2.551-16.775-7
	c-3.384-3.934-4.816-9.067-4.009-14.442c1.175-7.858,16.792-20.367,28.217-20.367c6.95,0,11.809,4.309,13.325,11.825
	C151.475,85.2,148.809,94.417,143.625,100.75z"/>
</svg>
