<?xml version="1.0" encoding="utf-8"?>
<!-- Generator: Adobe Illustrator 16.0.4, SVG Export Plug-In . SVG Version: 6.00 Build 0)  -->
<!DOCTYPE svg PUBLIC "-//W3C//DTD SVG 1.1//EN" "http://www.w3.org/Graphics/SVG/1.1/DTD/svg11.dtd">
<svg version="1.1" id="skull" xmlns="http://www.w3.org/2000/svg" xmlns:xlink="http://www.w3.org/1999/xlink" x="0px" y="0px"
	 width="32px" height="32px" viewBox="0 0 32 32" enable-background="new 0 0 32 32" xml:space="preserve">
<path fill="#FFFFFF" d="M16,0C6,0,2,4,2,14v8l4,2v6h20v-6l4-2v-8C30,4,26,0,16,0 M9,12c2.485,0,4.5,2.015,4.5,4.5S11.485,21,9,21
	s-4.5-2.015-4.5-4.5S6.515,12,9,12 M23,12c2.485,0,4.5,2.015,4.5,4.5S25.485,21,23,21s-4.5-2.015-4.5-4.5S20.515,12,23,12L23,12"/>
</svg>
